<svg width="140" height="64" viewBox="0 0 140 64" fill="none" xmlns="http://www.w3.org/2000/svg">
<mask id="mask0_23_170" style="mask-type:luminance" maskUnits="userSpaceOnUse" x="92" y="0" width="48" height="37">
<path d="M92.1906 0H139.358V36.9834H92.1906V0Z" fill="white"/>
</mask>
<g mask="url(#mask0_23_170)">
<mask id="mask1_23_170" style="mask-type:luminance" maskUnits="userSpaceOnUse" x="89" y="-3" width="53" height="45">
<path d="M91.6169 -2.1L141.41 0.232403L139.492 41.1918L89.6991 38.8594L91.6169 -2.1Z" fill="white"/>
</mask>
<g mask="url(#mask1_23_170)">
<mask id="mask2_23_170" style="mask-type:luminance" maskUnits="userSpaceOnUse" x="89" y="-3" width="53" height="45">
<path d="M91.6169 -2.1L141.41 0.232403L139.492 41.1918L89.6991 38.8594L91.6169 -2.1Z" fill="white"/>
</mask>
<g mask="url(#mask2_23_170)">
<path d="M138.234 13.1695C136.025 6.6643 129.563 2.16071 123.075 0.783046C114.551 -1.02383 105.082 1.0301 97.8897 5.94615C93.206 9.14745 90.7752 15.8097 93.8007 20.9874C95.0946 23.4727 96.734 25.8344 99.2171 27.2497C98.5178 29.0001 97.896 30.7818 97.115 32.4987C96.6984 33.6042 95.9635 34.7159 95.9886 35.924C97.3998 39.1002 109.512 30.1956 111.999 29.1194C118.316 29.3979 124.976 29.8208 130.83 27.3439C136.592 24.9069 140.361 19.4381 138.234 13.1695Z" fill="#FDFDFF"/>
</g>
</g>
</g>
<mask id="mask3_23_170" style="mask-type:luminance" maskUnits="userSpaceOnUse" x="102" y="12" width="30" height="7">
<path d="M102.374 12.3278H131.318V18.7597H102.374V12.3278Z" fill="white"/>
</mask>
<g mask="url(#mask3_23_170)">
<mask id="mask4_23_170" style="mask-type:luminance" maskUnits="userSpaceOnUse" x="89" y="-3" width="53" height="45">
<path d="M91.6169 -2.1L141.41 0.232403L139.492 41.1918L89.6991 38.8594L91.6169 -2.1Z" fill="white"/>
</mask>
<g mask="url(#mask4_23_170)">
<mask id="mask5_23_170" style="mask-type:luminance" maskUnits="userSpaceOnUse" x="89" y="-3" width="53" height="45">
<path d="M91.6169 -2.1L141.41 0.232403L139.492 41.1918L89.6991 38.8594L91.6169 -2.1Z" fill="white"/>
</mask>
<g mask="url(#mask5_23_170)">
<path d="M108.637 14.7879C108.729 12.9894 106.526 12.2461 104.872 12.5079C104.874 12.5079 104.876 12.5058 104.876 12.5058C104.851 12.51 104.822 12.5141 104.797 12.5183C104.801 12.5183 104.803 12.5183 104.805 12.5183C102.251 13.0187 101.33 16.6136 104.119 17.5223C106.072 18.2132 108.511 16.9235 108.616 14.9994C108.639 14.9345 108.628 14.8633 108.637 14.7879ZM104.784 12.5204C104.788 12.5204 104.793 12.5183 104.797 12.5183C104.747 12.5225 104.753 12.5267 104.784 12.5204ZM119.696 14.3838C119.532 14.0153 119.082 13.3977 118.775 13.1758C118.718 13.1339 118.624 13.0648 118.544 13.0166C117.667 12.4806 116.513 12.5225 115.575 12.778C114.17 13.1611 113.226 15.2632 113.875 16.6157C115.376 19.7458 121.31 18.0206 119.696 14.3838ZM131.088 15.0748C130.784 13.4103 128.739 12.5455 127.262 13.048C125.636 13.6008 124.568 15.4056 125.215 16.9444C126.35 19.6474 131.653 18.2111 131.088 15.0748Z" fill="#020717"/>
</g>
</g>
</g>
<path d="M17.9544 21.1377C19.1269 21.0665 20.1675 21.1691 21.0783 21.4476C21.9932 21.7218 22.4685 22.1406 22.502 22.7038C22.5355 23.2628 22.3617 23.9684 21.9828 24.8226C21.608 25.6727 21.2793 26.104 20.9945 26.1207C20.915 26.127 20.8207 26.0914 20.7098 26.0119C20.5967 25.9344 20.3497 25.8527 19.9644 25.769C19.5834 25.6852 19.2567 25.6517 18.9846 25.6685C18.0508 25.725 17.32 26.0998 16.7903 26.7907C16.2648 27.4837 16.0408 28.5076 16.1203 29.8643C16.2041 31.221 16.5579 32.2135 17.184 32.8374C17.8142 33.4571 18.5784 33.7398 19.4787 33.6832C19.8472 33.6623 20.2575 33.5869 20.7098 33.4571C21.162 33.3231 21.4761 33.1535 21.6561 32.9463C21.6834 32.9128 21.7441 32.8939 21.8404 32.8876C21.9346 32.8834 22.1251 33.053 22.4099 33.3985C22.6988 33.7398 22.9752 34.1983 23.239 34.772C23.5007 35.3415 23.6431 35.7853 23.6661 36.1036C23.7038 36.7296 23.2515 37.2593 22.3094 37.6948C21.3714 38.1261 20.2429 38.3795 18.9259 38.4569C16.8092 38.5909 15.0232 37.9544 13.566 36.5475C12.1088 35.1363 11.2964 33.0698 11.1289 30.35C10.9614 27.6324 11.5309 25.4507 12.8374 23.8093C14.1439 22.1636 15.8482 21.2717 17.9544 21.1377Z" fill="#FDFDFF"/>
<path d="M25.3043 36.3928L24.3747 21.4269C24.358 21.0877 25.1641 20.8658 26.7951 20.7653C28.424 20.6648 29.2489 20.7863 29.2657 21.1254L29.9943 32.9173L33.696 32.6911C33.9849 32.6702 34.2089 33.0324 34.366 33.7799C34.4434 34.1546 34.4937 34.5336 34.5167 34.9188C34.5376 35.2999 34.5376 35.6893 34.5167 36.0913C34.433 36.8744 34.2445 37.2722 33.9556 37.2889L26.5438 37.7412C26.1921 37.7642 25.9011 37.6386 25.6728 37.3643C25.4488 37.0858 25.3253 36.7613 25.3043 36.3928Z" fill="#FDFDFF"/>
<path d="M37.4347 32.9162L36.8987 24.3403L35.1986 24.4492C34.9243 24.466 34.7108 24.1352 34.5538 23.4526C34.4868 23.1176 34.4428 22.7742 34.4198 22.4225C34.3988 22.0666 34.4009 21.719 34.4281 21.384C34.5014 20.6868 34.6752 20.3288 34.9474 20.312L43.0291 19.8095C43.3013 19.7928 43.5107 20.1278 43.6572 20.8145C43.7347 21.1453 43.785 21.4887 43.808 21.8446C43.8289 22.1964 43.8205 22.5439 43.7829 22.8831C43.72 23.5761 43.5526 23.93 43.2804 23.9467L41.664 24.0472L42.2 32.6231L43.8917 32.5226C44.1639 32.5058 44.3775 32.8387 44.5282 33.5192C44.6162 33.8542 44.6727 34.1976 44.6957 34.5493C44.7167 34.9011 44.7041 35.2486 44.6538 35.5878C44.5868 36.2871 44.4152 36.643 44.143 36.6598L36.0277 37.1623C35.7535 37.179 35.5462 36.844 35.408 36.1573C35.3284 35.8223 35.2782 35.4789 35.2572 35.1272C35.2342 34.7754 35.2426 34.43 35.2824 34.0887C35.3368 33.3978 35.5022 33.0418 35.7765 33.0251L37.4347 32.9162Z" fill="#FDFDFF"/>
<path d="M53.6248 25.8808C53.9305 25.8599 54.121 26.4084 54.1943 27.5307C54.211 27.8719 54.1964 28.2739 54.1524 28.7366C54.1064 29.2014 53.987 29.438 53.7923 29.4485L50.7355 29.6327L50.8862 32.0363L55.3165 31.7683C55.5887 31.7516 55.7981 32.095 55.9446 32.7984C55.9991 33.0958 56.0389 33.4161 56.0619 33.7616C56.0828 34.1028 56.064 34.5488 56.0033 35.1015C55.9467 35.6543 55.8044 35.939 55.5761 35.9558L47.3436 36.4583C46.7344 36.498 46.4161 36.2698 46.3889 35.7715L45.4342 20.2948C45.4049 19.876 45.5765 19.6562 45.945 19.6332L54.5628 19.1055C54.902 19.0846 55.1155 19.7839 55.1993 21.2076C55.2872 22.6272 55.1616 23.3474 54.8224 23.3683L50.367 23.6363L50.5177 26.0651L53.6248 25.8808Z" fill="#FDFDFF"/>
<path d="M71.4561 34.4449C71.4771 34.7799 70.7359 34.9955 69.2284 35.0897C67.7209 35.1798 66.8939 35.1107 66.7494 34.8804L62.2689 27.611L62.7295 35.0981C62.7463 35.3892 62.0114 35.5818 60.5269 35.676C59.0404 35.766 58.2908 35.6655 58.2741 35.3745L57.2775 19.2696C57.2649 19.0309 57.893 18.8718 59.1618 18.7923C59.658 18.765 60.2422 18.7755 60.9122 18.8258C61.5863 18.8718 62.003 19.0079 62.16 19.2361L66.4731 26.4134L66.0041 18.8592C65.9873 18.5536 66.7243 18.3547 68.215 18.2646C69.7058 18.1704 70.4595 18.2772 70.4763 18.5829L71.4561 34.4449Z" fill="#FDFDFF"/>
<path d="M81.1182 33.9936C81.1391 34.3181 80.3561 34.5296 78.7648 34.6301C77.1778 34.7264 76.3738 34.6112 76.3529 34.2867L75.6075 22.2017L72.7182 22.3776C72.446 22.3944 72.2304 22.0384 72.0733 21.3056C72.0021 20.9539 71.954 20.5938 71.931 20.2253C71.91 19.8568 71.9121 19.4946 71.9393 19.1365C72.0063 18.3954 72.178 18.0143 72.4502 17.9976L82.9188 17.3527C83.191 17.3359 83.4066 17.694 83.5637 18.4247C83.6348 18.7722 83.683 19.1282 83.706 19.4967C83.727 19.8652 83.7249 20.2316 83.6976 20.5938C83.6306 21.337 83.459 21.716 83.1868 21.7328L80.3728 21.9086L81.1182 33.9936Z" fill="#FDFDFF"/>
<path d="M32.5643 63.9683C31.017 64.0646 30.2361 63.9411 30.2193 63.5998L29.1976 47.0762C29.1641 46.4962 29.4111 46.1927 29.9429 46.1633L34.4319 45.8786C36.9443 45.7278 38.7868 46.1382 39.9593 47.1097C41.136 48.077 41.7871 49.5447 41.9106 51.5149C42.0111 53.1459 41.5756 54.6764 40.6042 56.1043C40.1184 56.8141 39.3772 57.4066 38.3848 57.8798C37.3903 58.3488 36.2157 58.6251 34.859 58.7089L35.1354 63.2732C35.1521 63.4805 34.8422 63.6417 34.2058 63.7589C33.5693 63.872 33.0207 63.9411 32.5643 63.9683ZM34.3397 50.3424L34.591 54.3707L34.926 54.354C35.5164 54.3163 36.0063 54.0985 36.3916 53.7007C36.7768 53.2987 36.9464 52.7606 36.9025 52.0844C36.8627 51.4039 36.6931 50.9265 36.3916 50.6523C36.0901 50.3801 35.5813 50.2649 34.8674 50.3089L34.3397 50.3424Z" fill="#FDFDFF"/>
<path d="M49.7273 62.5024C49.744 62.7767 48.9421 62.9631 47.3237 63.0636C45.699 63.1641 44.8803 63.0866 44.8698 62.8291L43.8397 46.2049C43.8062 45.6082 44.0994 45.29 44.7191 45.2502L49.5933 44.9487C54.0696 44.6702 56.4146 46.2761 56.6282 49.7643C56.6952 50.8195 56.5486 51.7889 56.1927 52.6703C55.8346 53.5539 55.2966 54.2762 54.5763 54.8394L58.1273 59.99C58.0142 60.4087 57.6017 60.9028 56.8878 61.4723C55.91 62.2659 55.0893 62.6846 54.4256 62.7286C53.7661 62.7683 53.2615 62.559 52.9097 62.1004L50.1628 56.6652L49.3755 56.7154L49.7273 62.5024ZM48.9317 49.5214L49.1662 53.3487L49.3002 53.3403C50.9081 53.2398 51.6702 52.5196 51.5865 51.1796C51.5467 50.5662 51.3625 50.1202 51.0337 49.8396C50.7029 49.5612 50.1795 49.4439 49.4593 49.4879L48.9317 49.5214Z" fill="#FDFDFF"/>
<path d="M67.5509 50.9552C67.8734 50.9343 68.0723 51.5205 68.1456 52.714C68.1665 53.072 68.156 53.497 68.1121 53.9869C68.066 54.479 67.9404 54.7302 67.7352 54.7407L64.5025 54.9417L64.6532 57.4876L69.3348 57.1945C69.6237 57.1778 69.8457 57.5421 69.9964 58.2832C70.0634 58.6015 70.1074 58.9449 70.1304 59.3134C70.1513 59.6777 70.1304 60.1508 70.0634 60.7371C70.0006 61.3233 69.8499 61.6227 69.6112 61.6332L60.8846 62.1776C60.2481 62.2173 59.9131 61.9724 59.8796 61.4406L58.8662 45.051C58.8432 44.605 59.0274 44.3684 59.4189 44.3391L68.5392 43.778C68.8951 43.757 69.1191 44.4982 69.2092 46.0057C69.3034 47.509 69.1715 48.2711 68.8156 48.292L64.1089 48.5851L64.268 51.1562L67.5509 50.9552Z" fill="#FDFDFF"/>
<path d="M74.7108 61.3688C73.1636 61.4651 72.3826 61.3416 72.3659 61.0003L71.3441 44.4767C71.3106 43.8967 71.5577 43.5931 72.0895 43.5638L76.5784 43.2791C79.0909 43.1283 80.9334 43.5387 82.1058 44.5102C83.2825 45.4775 83.9336 46.9452 84.0572 48.9154C84.1577 50.5464 83.7222 52.0769 82.7507 53.5048C82.265 54.2146 81.5238 54.8071 80.5314 55.2803C79.5368 55.7492 78.3623 56.0256 77.0055 56.1094L77.2819 60.6737C77.2987 60.8809 76.9888 61.0422 76.3523 61.1594C75.7158 61.2725 75.1673 61.3416 74.7108 61.3688ZM76.4863 47.7429L76.7375 51.7712L77.0725 51.7544C77.663 51.7167 78.1529 51.499 78.5381 51.1012C78.9234 50.6992 79.093 50.1611 79.049 49.4848C79.0092 48.8044 78.8396 48.327 78.5381 48.0527C78.2366 47.7806 77.7279 47.6654 77.0139 47.7094L76.4863 47.7429Z" fill="#FDFDFF"/>
<path d="M94.0375 60.1767C92.4903 60.273 91.7093 60.1495 91.6926 59.8082L90.6708 43.2846C90.6373 42.7047 90.8844 42.4011 91.4162 42.3718L95.9051 42.087C98.4176 41.9363 100.26 42.3466 101.433 43.3181C102.609 44.2854 103.26 45.7531 103.384 47.7233C103.484 49.3543 103.049 50.8848 102.077 52.3127C101.592 53.0225 100.851 53.615 99.8581 54.0882C98.8636 54.5572 97.689 54.8336 96.3323 54.9173L96.6086 59.4816C96.6254 59.6889 96.3155 59.8501 95.679 59.9674C95.0425 60.0804 94.494 60.1495 94.0375 60.1767ZM95.813 46.5508L96.0643 50.5791L96.3993 50.5624C96.9897 50.5247 97.4796 50.307 97.8649 49.9091C98.2501 49.5072 98.4197 48.9691 98.3757 48.2928C98.3359 47.6123 98.1664 47.135 97.8649 46.8607C97.5634 46.5885 97.0546 46.4734 96.3406 46.5173L95.813 46.5508Z" fill="#FDFDFF"/>
<path d="M118.344 58.6773C116.858 58.7736 116.045 58.5852 115.907 58.1162L114.86 54.8751L110.807 55.1264L110.254 58.334C110.187 58.87 109.387 59.1861 107.859 59.2803C107.042 59.3306 106.437 59.3201 106.042 59.2468C105.644 59.1756 105.443 59.1128 105.439 59.0626L108.889 41.5256C108.883 41.3874 110.045 41.245 112.373 41.0985C114.701 40.954 115.867 40.9519 115.874 41.0901L121.359 58.1078C121.363 58.2314 120.976 58.3507 120.195 58.468C119.418 58.581 118.801 58.6501 118.344 58.6773ZM111.234 51.8518L113.922 51.6927L112.44 46.4752L112.289 46.4835L111.234 51.8518Z" fill="#FDFDFF"/>
<path d="M122.709 56.8433L121.729 40.9813C121.708 40.6253 122.558 40.3929 124.283 40.2862C126.008 40.1815 126.881 40.3071 126.904 40.663L127.675 53.1583L131.603 52.9155C131.908 52.8987 132.149 53.2902 132.323 54.0879C132.394 54.4732 132.442 54.871 132.465 55.2772C132.493 55.6792 132.495 56.0979 132.474 56.5334C132.384 57.3541 132.185 57.7771 131.879 57.798L124.015 58.2838C123.647 58.3068 123.341 58.1707 123.102 57.8734C122.862 57.5782 122.73 57.2348 122.709 56.8433Z" fill="#FDFDFF"/>
<mask id="mask6_23_170" style="mask-type:luminance" maskUnits="userSpaceOnUse" x="0" y="44" width="25" height="19">
<path d="M0 44.4873H24.1196V62.175H0V44.4873Z" fill="white"/>
</mask>
<g mask="url(#mask6_23_170)">
<mask id="mask7_23_170" style="mask-type:luminance" maskUnits="userSpaceOnUse" x="-2" y="42" width="29" height="25">
<path d="M-1.65195 45.8566L23.414 42.2366L26.3452 62.5289L1.27926 66.1489L-1.65195 45.8566Z" fill="white"/>
</mask>
<g mask="url(#mask7_23_170)">
<mask id="mask8_23_170" style="mask-type:luminance" maskUnits="userSpaceOnUse" x="-2" y="42" width="29" height="25">
<path d="M23.2528 42.2596L-1.81314 45.8796L1.11806 66.1719L26.182 62.5519L23.2528 42.2596Z" fill="white"/>
</mask>
<g mask="url(#mask8_23_170)">
<path d="M0.510874 52.2299C1.30649 48.8444 4.34238 46.2586 7.54367 45.2494C11.75 43.922 16.622 44.4936 20.487 46.6208C23.0016 48.0048 24.5509 51.2417 23.2801 53.9991C22.7503 55.316 22.0385 56.5848 20.8576 57.4202C21.2952 58.2661 21.6951 59.135 22.1725 59.9599C22.4363 60.498 22.8613 61.0235 22.9074 61.6328C22.3525 63.3015 15.8139 59.4051 14.5074 58.9863C11.3396 59.4344 8.00429 59.9725 4.93281 59.0114C1.91157 58.063 -0.255426 55.4919 0.510874 52.2299Z" fill="#FDFDFF"/>
</g>
</g>
</g>
<mask id="mask9_23_170" style="mask-type:luminance" maskUnits="userSpaceOnUse" x="3" y="49" width="16" height="6">
<path d="M3.75192 49.8472H18.7597V54.6712H3.75192V49.8472Z" fill="white"/>
</mask>
<g mask="url(#mask9_23_170)">
<mask id="mask10_23_170" style="mask-type:luminance" maskUnits="userSpaceOnUse" x="-2" y="42" width="29" height="25">
<path d="M-1.65198 45.8566L23.414 42.2366L26.3452 62.5289L1.27923 66.1489L-1.65198 45.8566Z" fill="white"/>
</mask>
<g mask="url(#mask10_23_170)">
<mask id="mask11_23_170" style="mask-type:luminance" maskUnits="userSpaceOnUse" x="-2" y="42" width="29" height="25">
<path d="M23.2528 42.2596L-1.81317 45.8796L1.11803 66.1719L26.1819 62.5519L23.2528 42.2596Z" fill="white"/>
</mask>
<g mask="url(#mask11_23_170)">
<path d="M15.5019 51.5997C15.3679 50.6994 16.442 50.2157 17.2878 50.2681C17.2878 50.2681 17.2857 50.2681 17.2857 50.266C17.2983 50.2681 17.313 50.2681 17.3255 50.2702C17.3255 50.2702 17.3234 50.2702 17.3213 50.2702C18.6341 50.3979 19.2727 52.1629 17.9118 52.7575C16.9612 53.2014 15.6715 52.6696 15.5228 51.7065C15.5082 51.6751 15.5103 51.6374 15.5019 51.5997ZM17.3318 50.2702C17.3297 50.2702 17.3276 50.2702 17.3255 50.2702C17.3527 50.2681 17.3485 50.2723 17.3318 50.2702ZM9.91166 51.9368C9.97448 51.7421 10.1713 51.4112 10.3158 51.2835C10.343 51.2605 10.3869 51.2186 10.4246 51.1914C10.8392 50.8794 11.4233 50.8438 11.907 50.9255C12.6356 51.0511 13.2135 52.0624 12.9517 52.7764C12.3488 54.4283 9.27517 53.8483 9.91166 51.9368ZM4.20419 52.8413C4.27747 51.987 5.2657 51.451 6.032 51.6332C6.87996 51.8321 7.50598 52.6884 7.25474 53.4966C6.81506 54.914 4.07228 54.4492 4.20419 52.8413Z" fill="#020717"/>
</g>
</g>
</g>
</svg>
